<svg xmlns="http://www.w3.org/2000/svg" width="24" height="24" fill="#667085" stroke="#667085" xmlns:v="https://vecta.io/nano"><path d="M20.484.5h2.813c.112 0 .203.091.203.203v2.812c0 .112-.091.203-.203.203s-.203-.091-.203-.203V.906h-2.609c-.112 0-.203-.091-.203-.203s.09-.203.202-.203zM.703 20.281c.112 0 .203.091.203.203v2.609h2.609c.112 0 .203.091.203.203s-.091.203-.203.203H.703c-.112 0-.203-.091-.203-.203v-2.812c0-.112.091-.203.203-.203zM.703.5h2.812c.112 0 .203.091.203.203s-.091.203-.203.203H.906v2.609c0 .112-.091.203-.203.203S.5 3.628.5 3.516V.703C.5.591.591.5.703.5zm22.594 19.781c.112 0 .203.091.203.203v2.813c0 .112-.091.203-.203.203h-2.812c-.112 0-.203-.091-.203-.203s.091-.203.203-.203h2.609v-2.609c0-.112.091-.203.203-.203zM12 9.453A2.55 2.55 0 0 1 14.547 12 2.55 2.55 0 0 1 12 14.547 2.55 2.55 0 0 1 9.453 12 2.55 2.55 0 0 1 12 9.453zm0 .406c-1.181 0-2.141.96-2.141 2.141s.96 2.141 2.141 2.141 2.141-.96 2.141-2.141-.96-2.141-2.141-2.141zm0-3.687c2.569 0 5.373.97 8.104 2.849 2.045 1.407 3.306 2.8 3.345 2.844.052.058.065.138.039.207l-.039.064c-.039.044-1.3 1.437-3.345 2.844-2.731 1.879-5.534 2.849-8.103 2.849s-5.373-.97-8.104-2.849C1.852 13.573.591 12.18.552 12.136c-.069-.077-.069-.194 0-.271.039-.043 1.3-1.437 3.345-2.844C6.627 7.142 9.431 6.172 12 6.172zm0 .406A5.43 5.43 0 0 0 6.578 12 5.43 5.43 0 0 0 12 17.422 5.43 5.43 0 0 0 17.422 12 5.43 5.43 0 0 0 12 6.578zm4.767 2.072c.669.949 1.061 2.104 1.061 3.35a5.8 5.8 0 0 1-1.062 3.352l-1.109 1.571 1.734-.833c2.506-1.203 4.427-2.909 5.272-3.731l.367-.358-.367-.358c-.544-.531-1.529-1.423-2.818-2.307-.686-.47-1.517-.976-2.453-1.424l-1.728-.827 1.104 1.566zM6.609 7.91c-2.506 1.203-4.427 2.909-5.271 3.731L.971 12l.367.358a21.68 21.68 0 0 0 2.818 2.307 18.48 18.48 0 0 0 2.453 1.424l1.729.827-1.104-1.566c-.669-.949-1.062-2.104-1.062-3.35s.393-2.403 1.063-3.352l1.109-1.571-1.734.833z"/></svg>