<svg xmlns="http://www.w3.org/2000/svg" width="40" height="40" fill="none" xmlns:v="https://vecta.io/nano"><path d="M10.869 4.381H25.54c.652 0 1.281.238 1.769.671l3.591 3.188c.569.505.895 1.23.895 1.991v20.446c0 1.471-1.193 2.663-2.664 2.663H10.869c-1.471 0-2.663-1.192-2.663-2.663V7.044c0-1.471 1.192-2.663 2.663-2.663z" fill="#fff" stroke="red" stroke-width=".761"/><path d="M20.101 10.59c-.535.008-.907.348-1.088.551-.419.471-.438 1.117-.298 1.743s.44 1.292.806 1.967c.041.076.087.127.129.203-.736 1.339-1.748 2.797-2.631 3.959-1.147.273-2.244.406-2.904 1.149-.552.622-.591 1.568 0 2.118a1.49 1.49 0 0 0 .93.345 1.45 1.45 0 0 0 .747-.21c.771-.471 1.273-1.47 1.829-2.626l4.507-1.05c.676.838 1.38 1.66 2.218 1.919a1.84 1.84 0 0 0 1.167-.027c.367-.133.71-.395.867-.8.273-.736-.028-1.551-.732-1.919-.547-.295-1.228-.345-1.987-.312-.388.017-.797.058-1.213.119l-1.73-2.703c.338-.672.633-1.333.759-1.94.141-.678.113-1.345-.271-1.859-.276-.435-.696-.621-1.104-.624zm.37 1.161c.167.216.224.584.109 1.133-.064.305-.279.714-.434 1.086-.223-.459-.456-.93-.537-1.289-.108-.482-.034-.749.09-.93.087-.142.204-.228.373-.238.177-.01.295.105.399.238zm-.278 4.151l1.267 1.985-3.015.732 1.748-2.717zm5.015 2.814c.332.179.431.462.31.781-.113.294-.66.372-.901.285-.327-.101-.855-.708-1.337-1.208a2.32 2.32 0 0 1 .422-.061c.485-.021 1.053-.01 1.506.203zm-9.01 1.567c-.319.519-.678 1.223-.888 1.351-.208.143-.447.09-.569-.034-.168-.162-.197-.528.068-.827.271-.26.657-.369 1.389-.49zM26.479 4.227V9.09h5.479L26.48 4.226zM7.825 26.283h24.329v6.674c0 1.681-1.363 3.044-3.044 3.044H10.869c-1.681 0-3.044-1.363-3.044-3.044v-6.674z" fill="red"/><path d="M16.936 31.977c0 .247-.057.475-.171.682a1.26 1.26 0 0 1-.523.493c-.235.126-.528.189-.877.189h-.645v1.534h-1.041v-4.273h1.686c.341 0 .629.059.864.177s.412.28.53.487.177.444.177.712zm-1.65.536c.199 0 .347-.047.444-.14s.146-.225.146-.396-.049-.302-.146-.396-.245-.14-.444-.14h-.566v1.071h.566zm4.706-1.912c.45 0 .844.089 1.181.268s.597.43.779.755.28.692.28 1.114-.093.789-.28 1.114a1.88 1.88 0 0 1-.785.755c-.337.178-.729.268-1.175.268h-1.601v-4.273h1.601zm-.067 3.372c.394 0 .7-.108.919-.323s.329-.519.329-.913-.11-.7-.329-.919-.526-.329-.919-.329h-.493v2.484h.493zm6.584-3.372v.834h-1.741v.901h1.303v.81h-1.303v1.729h-1.041v-4.273h2.782z" fill="#fff"/></svg>